<?xml version="1.0" encoding="utf-8"?>
<!-- Generator: Adobe Illustrator 17.0.0, SVG Export Plug-In . SVG Version: 6.00 Build 0)  -->
<!DOCTYPE svg PUBLIC "-//W3C//DTD SVG 1.1//EN" "http://www.w3.org/Graphics/SVG/1.1/DTD/svg11.dtd">
<svg version="1.1" xmlns="http://www.w3.org/2000/svg" id="play-black" viewBox="0 0 34.7 40">
    <path d="M3.7 40c-.8 0-1.4-.2-1.8-.5l-.2-.1c-1-.7-1.7-1.9-1.7-3.1V3.8C0 2.4.7 1.2 1.9.5c1.2-.7 2.7-.7 3.8.1l27 16.2c1.2.6 2 1.9 2 3.2 0 1.3-.8 2.6-1.8 3.2L5.7 39.5c-.6.3-1.3.5-2 .5zm0-3.6l27.4-16.3-.1-.1-.1-.1L3.8 3.6h-.1c-.1 0-.1.1-.1.1l.1 32.7c-.1-.1 0-.1 0 0zm27.4-16.3z"></path>
</svg>